<svg width="30" height="30" viewBox="0 0 30 30" fill="none" xmlns="http://www.w3.org/2000/svg">
<path d="M11.0305 15.056C10.9316 14.9581 10.8751 14.8217 10.8751 14.6821C10.8751 14.5432 10.9316 14.4062 11.0305 14.3083C11.1292 14.2095 11.2653 14.153 11.4043 14.153C11.5433 14.153 11.6799 14.2095 11.7781 14.3083C11.8769 14.4062 11.9331 14.5432 11.9331 14.6821C11.9331 14.8212 11.8769 14.9581 11.7781 15.056C11.6799 15.1547 11.5433 15.2113 11.4043 15.2113C11.2653 15.2113 11.1292 15.1547 11.0305 15.056ZM9.78571 13.8377C9.68689 13.9365 9.54997 13.993 9.41095 13.993C9.272 13.993 9.13592 13.9365 9.0371 13.8377C8.9392 13.739 8.88214 13.6029 8.88214 13.4642C8.88214 13.3244 8.9392 13.1883 9.0371 13.0895C9.13592 12.9913 9.272 12.9351 9.41095 12.9351C9.55081 12.9351 9.68689 12.9913 9.78571 13.0895C9.88361 13.1883 9.94011 13.3244 9.94011 13.4642C9.94011 13.6029 9.88361 13.739 9.78571 13.8377ZM11.7161 11.6809C11.814 11.583 11.9503 11.5265 12.0899 11.5265C12.2289 11.5265 12.3658 11.583 12.4637 11.6809C12.5625 11.7798 12.619 11.9164 12.619 12.0554C12.619 12.1944 12.5625 12.3305 12.4637 12.4292C12.3649 12.528 12.2289 12.5845 12.0899 12.5845C11.9509 12.5845 11.814 12.528 11.7161 12.4292C11.6172 12.3305 11.5607 12.1944 11.5607 12.0554C11.5607 11.9158 11.6172 11.7798 11.7161 11.6809ZM12.3372 18.6116L13.7 10.7451L8.86613 9.90738L7.50333 17.7742C7.27228 19.107 8.16885 20.3791 9.50158 20.6102C9.64144 20.6344 9.78361 20.6466 9.92382 20.6466C11.1182 20.6466 12.133 19.7908 12.3372 18.6116Z" fill="#EE6B59"/>
<path d="M14.9832 3.8514C15.2755 3.8514 15.5123 3.61448 15.5123 3.32224V0.528881C15.5123 0.236573 15.2755 0 14.9832 0C14.6909 0 14.4543 0.236573 14.4543 0.528881V3.32224C14.4543 3.61448 14.6909 3.8514 14.9832 3.8514Z" fill="#1C3D5B"/>
<path d="M12.3881 4.24902C12.4912 4.35217 12.6267 4.40371 12.7619 4.40371C12.8974 4.40371 13.0328 4.35217 13.136 4.24902C13.3426 4.0421 13.3426 3.70735 13.136 3.50077L11.1607 1.52553C10.9542 1.31888 10.6194 1.31888 10.4125 1.52553C10.2059 1.7321 10.2059 2.06714 10.4125 2.27378L12.3881 4.24902Z" fill="#1C3D5B"/>
<path d="M17.2097 4.40371C17.3451 4.40371 17.4807 4.35217 17.5841 4.24902L19.5591 2.27378C19.7656 2.06686 19.7656 1.7321 19.5591 1.52553C19.3525 1.31888 19.0174 1.31888 18.8108 1.52553L16.8358 3.50077C16.6293 3.70735 16.6293 4.04238 16.8358 4.24902C16.939 4.35217 17.0745 4.40371 17.2097 4.40371Z" fill="#1C3D5B"/>
<path d="M20.0309 11.6929C20.0309 11.554 20.0871 11.417 20.1854 11.3191C20.2841 11.2203 20.4202 11.1638 20.5598 11.1638C20.6987 11.1638 20.8348 11.2203 20.9336 11.3191C21.0324 11.417 21.0889 11.554 21.0889 11.6929C21.0889 11.8319 21.0324 11.9686 20.9336 12.0667C20.8348 12.1656 20.6987 12.2218 20.5598 12.2218C20.4202 12.2218 20.2841 12.1656 20.1854 12.0667C20.0871 11.9686 20.0309 11.8319 20.0309 11.6929ZM19.7643 14.0149C19.6655 14.1128 19.5291 14.1693 19.3905 14.1693C19.2506 14.1693 19.1145 14.1128 19.0158 14.0149C18.9179 13.9161 18.8613 13.78 18.8613 13.6405C18.8613 13.5006 18.9179 13.3646 19.0158 13.2667C19.1145 13.1679 19.2506 13.1114 19.3905 13.1114C19.5291 13.1114 19.6661 13.1679 19.7643 13.2667C19.8631 13.3646 19.9193 13.5015 19.9193 13.6405C19.9193 13.78 19.8631 13.9161 19.7643 14.0149ZM18.0813 12.0667C17.9826 12.1656 17.8465 12.2218 17.7075 12.2218C17.5685 12.2218 17.4316 12.1656 17.3331 12.0667C17.2349 11.9686 17.1784 11.8319 17.1784 11.6929C17.1784 11.5534 17.2349 11.417 17.3331 11.3191C17.4316 11.2203 17.5679 11.1638 17.7075 11.1638C17.8465 11.1638 17.9831 11.2203 18.0813 11.3191C18.1801 11.417 18.2363 11.5534 18.2363 11.6929C18.2363 11.8319 18.1801 11.9686 18.0813 12.0667ZM22.0557 19.6061C22.433 19.0702 22.5796 18.4199 22.4677 17.7742L21.1046 9.90738L16.2708 10.7451L17.6335 18.6116C17.8377 19.7908 18.8529 20.6466 20.0473 20.6466C20.1874 20.6466 20.3296 20.6344 20.4694 20.6102C21.1148 20.4983 21.6784 20.1416 22.0557 19.6061Z" fill="#EE6B59"/>
<path d="M12.0904 12.5845C12.2294 12.5845 12.3655 12.528 12.4642 12.4291C12.563 12.3304 12.6195 12.1943 12.6195 12.0554C12.6195 11.9163 12.563 11.7797 12.4642 11.6809C12.3663 11.583 12.2294 11.5265 12.0904 11.5265C11.9509 11.5265 11.8145 11.583 11.7166 11.6809C11.6178 11.7797 11.5613 11.9158 11.5613 12.0554C11.5613 12.1943 11.6178 12.3304 11.7166 12.4291C11.8145 12.528 11.9514 12.5845 12.0904 12.5845Z" fill="#1C3D5B"/>
<path d="M20.6708 28.6324L21.6833 27.6266L22.975 28.2335L20.6708 28.6324ZM20.4896 6.36341L20.9229 8.86488L16.0887 9.70229L15.6554 7.20082L20.4896 6.36341ZM17.6321 18.6114L16.2694 10.7448L21.1032 9.90712L22.4663 17.774C22.5782 18.4196 22.4316 19.07 22.0543 19.6059C21.677 20.1414 21.1134 20.498 20.468 20.6099C20.3282 20.6341 20.186 20.6463 20.0459 20.6463C18.8515 20.6463 17.8364 19.7905 17.6321 18.6114ZM9.29817 28.6324L6.99398 28.2335L8.28566 27.6266L9.29817 28.6324ZM9.50125 20.6099C8.16852 20.3789 7.27195 19.1067 7.503 17.774L8.8658 9.90712L13.6997 10.7448L12.3369 18.6114C12.1327 19.7905 11.1178 20.6463 9.92349 20.6463C9.78328 20.6463 9.64111 20.6341 9.50125 20.6099ZM9.47943 6.36341L14.3139 7.20082L13.8803 9.70229L9.04643 8.86488L9.47943 6.36341ZM24.9445 27.9893L22.0473 26.6289L21.163 21.5228C21.8701 21.2882 22.482 20.8357 22.9191 20.2151C23.4596 19.4485 23.6688 18.5173 23.5085 17.5933L21.4415 5.66145C21.3917 5.37362 21.1175 5.18075 20.8302 5.23054L14.9847 6.24334L9.13908 5.23054C8.85062 5.1804 8.57734 5.37362 8.52748 5.66145L6.46048 17.5933C6.16062 19.3238 7.18894 20.9829 8.80636 21.5228L7.92174 26.6289L5.02489 27.9893C4.81566 28.0872 4.69412 28.3098 4.72531 28.5385C4.75622 28.7675 4.9316 28.9499 5.1595 28.9893L10.7714 29.9613C10.8017 29.9666 10.832 29.9691 10.862 29.9691H10.8745C11.1615 29.9631 11.392 29.7285 11.392 29.4403C11.392 29.2818 11.3224 29.1396 11.2122 29.0426L8.96426 26.8092L9.84887 21.7026C9.87363 21.7031 9.89866 21.7043 9.92349 21.7043C11.6338 21.7043 13.0872 20.4796 13.3794 18.792L14.9847 9.52656L16.5896 18.792C16.8818 20.4794 18.3354 21.7043 20.0455 21.7043H20.0459C20.0706 21.7043 20.0954 21.7031 20.1204 21.7026L21.005 26.8092L18.7347 29.065C18.5709 29.2276 18.5313 29.478 18.6373 29.6831C18.7294 29.8608 18.9121 29.9691 19.1073 29.9691C19.1371 29.9691 19.1673 29.9666 19.1976 29.9613L24.8099 28.9893C25.0371 28.9499 25.2128 28.7675 25.2437 28.5385C25.2746 28.3098 25.1533 28.0872 24.9445 27.9893Z" fill="#1C3D5B"/>
<path d="M17.7044 11.1639C17.5648 11.1639 17.4285 11.2204 17.33 11.3192C17.2318 11.4171 17.1753 11.5535 17.1753 11.693C17.1753 11.8321 17.2318 11.9687 17.33 12.0669C17.4285 12.1657 17.5654 12.2219 17.7044 12.2219C17.8434 12.2219 17.9795 12.1657 18.0782 12.0669C18.177 11.9687 18.2333 11.8321 18.2333 11.693C18.2333 11.5535 18.177 11.4171 18.0782 11.3192C17.98 11.2204 17.8434 11.1639 17.7044 11.1639Z" fill="#1C3D5B"/>
<path d="M20.9308 12.0669C21.0295 11.9687 21.0861 11.8321 21.0861 11.693C21.0861 11.5541 21.0295 11.4171 20.9308 11.3192C20.832 11.2204 20.6959 11.1639 20.557 11.1639C20.4174 11.1639 20.2813 11.2204 20.1826 11.3192C20.0843 11.4171 20.0281 11.5541 20.0281 11.693C20.0281 11.8321 20.0843 11.9687 20.1826 12.0669C20.2813 12.1657 20.4174 12.2219 20.557 12.2219C20.6959 12.2219 20.832 12.1657 20.9308 12.0669Z" fill="#1C3D5B"/>
<path d="M19.389 13.1113C19.2492 13.1113 19.1131 13.1678 19.0143 13.2666C18.9164 13.3645 18.8599 13.5005 18.8599 13.6404C18.8599 13.7799 18.9164 13.916 19.0143 14.0148C19.1131 14.1127 19.2492 14.1692 19.389 14.1692C19.5277 14.1692 19.6641 14.1127 19.7629 14.0148C19.8616 13.916 19.9178 13.7799 19.9178 13.6404C19.9178 13.5014 19.8616 13.3645 19.7629 13.2666C19.6647 13.1678 19.5277 13.1113 19.389 13.1113Z" fill="#1C3D5B"/>
<path d="M9.40943 12.935C9.27048 12.935 9.13439 12.9913 9.03558 13.0894C8.93768 13.1882 8.88062 13.3243 8.88062 13.4641C8.88062 13.6029 8.93768 13.7389 9.03558 13.8377C9.13439 13.9365 9.27048 13.993 9.40943 13.993C9.54845 13.993 9.68537 13.9365 9.78418 13.8377C9.88208 13.7389 9.93859 13.6029 9.93859 13.4641C9.93859 13.3243 9.88208 13.1882 9.78418 13.0894C9.68537 12.9913 9.54929 12.935 9.40943 12.935Z" fill="#1C3D5B"/>
<path d="M11.9308 14.6823C11.9308 14.5433 11.8746 14.4064 11.7757 14.3085C11.6776 14.2097 11.5409 14.1531 11.402 14.1531C11.2629 14.1531 11.1269 14.2097 11.0281 14.3085C10.9293 14.4064 10.8728 14.5433 10.8728 14.6823C10.8728 14.8219 10.9293 14.9582 11.0281 15.0561C11.1269 15.1549 11.2629 15.2115 11.402 15.2115C11.5409 15.2115 11.6776 15.1549 11.7757 15.0561C11.8746 14.9582 11.9308 14.8213 11.9308 14.6823Z" fill="#1C3D5B"/>
</svg>
