<svg width="24" height="24" viewBox="0 0 24 24" fill="none" xmlns="http://www.w3.org/2000/svg">
<path fill-rule="evenodd" clip-rule="evenodd" d="M10.9737 3.3H13.0264C14.4019 3.3 15.47 3.3 16.3306 3.35872C17.203 3.41824 17.9132 3.54043 18.564 3.81001C20.2057 4.49002 21.51 5.79434 22.19 7.43602C22.4596 8.08685 22.5818 8.79704 22.6413 9.66942C22.7001 10.53 22.7001 11.5982 22.7001 12.9737V13.0263C22.7001 14.4018 22.7001 15.47 22.6413 16.3306C22.5818 17.203 22.4596 17.9132 22.19 18.564C21.51 20.2057 20.2057 21.51 18.564 22.19C17.9132 22.4596 17.203 22.5818 16.3306 22.6413C15.47 22.7 14.4019 22.7 13.0263 22.7H10.9738C9.59821 22.7 8.53009 22.7 7.66946 22.6413C6.79708 22.5818 6.08689 22.4596 5.43607 22.19C3.79438 21.51 2.49007 20.2057 1.81006 18.564C1.54048 17.9132 1.41828 17.203 1.35876 16.3306C1.30004 15.47 1.30005 14.4019 1.30005 13.0264V12.9736C1.30005 11.5981 1.30004 10.53 1.35876 9.66942C1.41828 8.79704 1.54048 8.08685 1.81006 7.43602C2.49007 5.79434 3.79438 4.49002 5.43607 3.81001C6.08689 3.54043 6.79708 3.41824 7.66946 3.35872C8.53007 3.3 9.59816 3.3 10.9737 3.3ZM7.76476 4.75547C6.96366 4.81013 6.42363 4.9163 5.97183 5.10344C4.67318 5.64136 3.64141 6.67313 3.10349 7.97178C2.91634 8.42358 2.81017 8.96362 2.75552 9.76472C2.70043 10.5721 2.70005 11.5926 2.70005 13C2.70005 14.4074 2.70043 15.4279 2.75552 16.2353C2.81017 17.0364 2.91634 17.5764 3.10349 18.0282C3.64141 19.3269 4.67318 20.3586 5.97183 20.8966C6.42363 21.0837 6.96366 21.1899 7.76476 21.2445C8.57215 21.2996 9.59265 21.3 11 21.3H13C14.4075 21.3 15.4279 21.2996 16.2353 21.2445C17.0364 21.1899 17.5765 21.0837 18.0283 20.8966C19.3269 20.3586 20.3587 19.3269 20.8966 18.0282C21.0838 17.5764 21.1899 17.0364 21.2446 16.2353C21.2997 15.4279 21.3 14.4074 21.3 13C21.3 11.5926 21.2997 10.5721 21.2446 9.76472C21.1899 8.96362 21.0838 8.42358 20.8966 7.97178C20.3587 6.67313 19.3269 5.64136 18.0283 5.10344C17.5765 4.9163 17.0364 4.81013 16.2353 4.75547C15.4279 4.70038 14.4075 4.7 13 4.7H11C9.59265 4.7 8.57215 4.70038 7.76476 4.75547Z" fill="#222628"/>
<path fill-rule="evenodd" clip-rule="evenodd" d="M2.30005 9C2.30005 8.6134 2.61345 8.3 3.00005 8.3L21 8.3C21.3866 8.3 21.7001 8.6134 21.7001 9C21.7001 9.3866 21.3866 9.7 21 9.7L3.00005 9.7C2.61345 9.7 2.30005 9.3866 2.30005 9Z" fill="#222628"/>
<path fill-rule="evenodd" clip-rule="evenodd" d="M5.30005 13C5.30005 12.6134 5.61345 12.3 6.00005 12.3H7.00005C7.38665 12.3 7.70005 12.6134 7.70005 13C7.70005 13.3866 7.38665 13.7 7.00005 13.7H6.00005C5.61345 13.7 5.30005 13.3866 5.30005 13Z" fill="#EF6B59"/>
<path fill-rule="evenodd" clip-rule="evenodd" d="M16.3 13C16.3 12.6134 16.6134 12.3 17 12.3H18C18.3866 12.3 18.7 12.6134 18.7 13C18.7 13.3866 18.3866 13.7 18 13.7H17C16.6134 13.7 16.3 13.3866 16.3 13Z" fill="#EF6B59"/>
<path fill-rule="evenodd" clip-rule="evenodd" d="M10.8 13C10.8 12.6134 11.1134 12.3 11.5 12.3H12.5C12.8866 12.3 13.2 12.6134 13.2 13C13.2 13.3866 12.8866 13.7 12.5 13.7H11.5C11.1134 13.7 10.8 13.3866 10.8 13Z" fill="#EF6B59"/>
<path fill-rule="evenodd" clip-rule="evenodd" d="M5.30005 17C5.30005 16.6134 5.61345 16.3 6.00005 16.3H7.00005C7.38665 16.3 7.70005 16.6134 7.70005 17C7.70005 17.3866 7.38665 17.7 7.00005 17.7H6.00005C5.61345 17.7 5.30005 17.3866 5.30005 17Z" fill="#EF6B59"/>
<path fill-rule="evenodd" clip-rule="evenodd" d="M16.3 17C16.3 16.6134 16.6134 16.3 17 16.3H18C18.3866 16.3 18.7 16.6134 18.7 17C18.7 17.3866 18.3866 17.7 18 17.7H17C16.6134 17.7 16.3 17.3866 16.3 17Z" fill="#EF6B59"/>
<path fill-rule="evenodd" clip-rule="evenodd" d="M10.8 17C10.8 16.6134 11.1134 16.3 11.5 16.3H12.5C12.8866 16.3 13.2 16.6134 13.2 17C13.2 17.3866 12.8866 17.7 12.5 17.7H11.5C11.1134 17.7 10.8 17.3866 10.8 17Z" fill="#EF6B59"/>
<path fill-rule="evenodd" clip-rule="evenodd" d="M16.7 2C17.0866 2 17.4 2.3134 17.4 2.7V5.3C17.4 5.6866 17.0866 6 16.7 6C16.3134 6 16 5.6866 16 5.3V2.7C16 2.3134 16.3134 2 16.7 2Z" fill="#222628"/>
<path fill-rule="evenodd" clip-rule="evenodd" d="M7.70002 2C8.08662 2 8.40002 2.3134 8.40002 2.7V5.3C8.40002 5.6866 8.08662 6 7.70002 6C7.31343 6 7.00002 5.6866 7.00002 5.3V2.7C7.00002 2.3134 7.31343 2 7.70002 2Z" fill="#222628"/>
</svg>
