<svg width="24" height="24" viewBox="0 0 24 24" fill="none" xmlns="http://www.w3.org/2000/svg">
<path fill-rule="evenodd" clip-rule="evenodd" d="M2.39135 11.5983C0.999941 7.5 3.49988 4.13839 6.28401 3.28632C8.99989 2.45515 10.9999 3.30167 11.9999 4.5C12.9999 3.30167 14.9999 2.45842 17.7052 3.28632C20.6708 4.1939 22.9999 7.5 21.6073 11.5983C19.8494 16.9083 12.9999 20.9983 11.9998 20.9983C10.9998 20.9984 4.20821 16.9703 2.39135 11.5983Z" fill="#EF6B59"/>
<path fill-rule="evenodd" clip-rule="evenodd" d="M11.4625 4.94851C10.6628 3.99025 8.96638 3.19748 6.48891 3.9557C4.04635 4.70322 1.80158 7.68367 3.05424 11.3733L3.0545 11.3741C3.90178 13.8793 5.93787 16.1275 7.94539 17.7713C8.94117 18.5866 9.90879 19.2358 10.6801 19.6776C11.0664 19.899 11.3951 20.0634 11.6473 20.1702C11.7736 20.2236 11.8724 20.2591 11.944 20.2801C11.9688 20.2873 11.987 20.2918 11.9993 20.2947C12.0117 20.2918 12.0298 20.2872 12.0545 20.2799C12.1265 20.2586 12.2258 20.2226 12.353 20.1684C12.6068 20.0601 12.9377 19.8934 13.3265 19.6696C14.1027 19.2228 15.0761 18.5676 16.0757 17.7482C18.0922 16.0952 20.1251 13.8485 20.9428 11.3783L20.9445 11.3731L20.9446 11.3731C22.2019 7.6729 20.1131 4.75528 17.5004 3.9557C15.0334 3.20074 13.3371 3.99028 12.5374 4.94853C12.4044 5.1079 12.2075 5.20002 11.9999 5.20002C11.7923 5.20001 11.5955 5.10788 11.4625 4.94851ZM12 3.50832C10.7118 2.40529 8.63992 1.8333 6.07921 2.61699L6.28222 3.28034L6.0792 2.61699C2.95368 3.57353 0.198707 7.31594 1.72829 11.8226C2.69787 14.6894 4.96598 17.1412 7.05847 18.8545C8.11269 19.7176 9.14404 20.4112 9.9842 20.8924C10.4036 21.1327 10.7838 21.3249 11.1015 21.4594C11.2601 21.5265 11.4116 21.5829 11.5503 21.6235C11.6784 21.6611 11.8385 21.6983 11.9999 21.6983C12.1626 21.6983 12.3237 21.6603 12.4521 21.6223C12.5912 21.5811 12.7432 21.524 12.9024 21.4561C13.2215 21.3199 13.6035 21.1256 14.025 20.8829C14.8693 20.3969 15.9057 19.6978 16.9632 18.8309C19.0603 17.1119 21.3304 14.6597 22.271 11.8208C23.797 7.32566 21.2279 3.63236 17.91 2.61699C15.3587 1.83618 13.2881 2.40598 12 3.50832Z" fill="#222628"/>
</svg>
