<svg width="24" height="24" viewBox="0 0 24 24" fill="none" xmlns="http://www.w3.org/2000/svg">
<path fill-rule="evenodd" clip-rule="evenodd" d="M6.1227 4.8657C4.65357 6.28641 3.70005 8.45487 3.70005 11.45C3.70005 14.3462 5.3181 17.069 7.25695 19.1047C8.21911 20.115 9.23708 20.9307 10.1232 21.489C10.5664 21.7682 10.9671 21.977 11.3031 22.1138C11.6516 22.2557 11.882 22.3 12 22.3C12.1181 22.3 12.3484 22.2557 12.697 22.1138C13.033 21.977 13.4337 21.7682 13.8769 21.489C14.763 20.9307 15.781 20.115 16.7432 19.1047C18.682 17.069 20.3 14.3462 20.3 11.45C20.3 8.45487 19.3465 6.28641 17.8774 4.8657C16.4027 3.43956 14.3391 2.7 12 2.7C9.66098 2.7 7.59745 3.43956 6.1227 4.8657ZM5.14947 3.85931C6.93209 2.13544 9.36856 1.3 12 1.3C14.6315 1.3 17.068 2.13544 18.8506 3.85931C20.6389 5.5886 21.7001 8.14514 21.7001 11.45C21.7001 14.8538 19.8181 17.906 17.7569 20.0703C16.7191 21.16 15.6121 22.0505 14.6232 22.6735C14.1289 22.9849 13.6546 23.2355 13.2249 23.4104C12.8079 23.5802 12.382 23.7 12 23.7C11.6181 23.7 11.1922 23.5802 10.7752 23.4104C10.3455 23.2355 9.87118 22.9849 9.37692 22.6735C8.38802 22.0505 7.28099 21.16 6.24315 20.0703C4.18199 17.906 2.30005 14.8538 2.30005 11.45C2.30005 8.14514 3.36124 5.5886 5.14947 3.85931Z" fill="#222628"/>
<path fill-rule="evenodd" clip-rule="evenodd" d="M12 7.7C10.5917 7.7 9.45005 8.84167 9.45005 10.25C9.45005 11.6583 10.5917 12.8 12 12.8C13.4084 12.8 14.55 11.6583 14.55 10.25C14.55 8.84167 13.4084 7.7 12 7.7ZM8.05005 10.25C8.05005 8.06847 9.81852 6.3 12 6.3C14.1816 6.3 15.95 8.06847 15.95 10.25C15.95 12.4315 14.1816 14.2 12 14.2C9.81852 14.2 8.05005 12.4315 8.05005 10.25Z" fill="#EF6B59"/>
</svg>
