<svg width="30" height="30" viewBox="0 0 30 30" fill="none" xmlns="http://www.w3.org/2000/svg">
<path d="M12.7008 9.54861L10.0338 7.98889L7.35352 9.54861H12.7008Z" fill="#EE6B59"/>
<path d="M13.1677 26.6427C12.2116 27.2074 11.1282 27.504 10.005 27.504C6.56791 27.504 3.77166 24.7077 3.77166 21.2706C3.77166 17.8336 6.56791 15.0376 10.005 15.0376C13.4421 15.0376 16.2383 17.8336 16.2383 21.2706C16.2383 22.2276 16.017 23.1734 15.5966 24.0262C15.861 24.4431 16.1815 24.821 16.55 25.1462C17.245 23.9756 17.6112 22.6457 17.6112 21.2706C17.6112 17.0766 14.1991 13.6647 10.005 13.6647C5.81088 13.6647 2.39868 17.0766 2.39868 21.2706C2.39868 25.4647 5.81088 28.8769 10.005 28.8769C11.4839 28.8769 12.8952 28.4588 14.1212 27.6661C13.7769 27.3512 13.4575 27.0089 13.1677 26.6427Z" fill="#EE6B59"/>
<path d="M19.9675 28.8768C15.7738 28.8768 12.3616 25.4646 12.3616 21.2705C12.3616 19.8932 12.7277 18.5653 13.4233 17.3952C13.7916 17.7205 14.1121 18.0984 14.3762 18.5152C13.9558 19.368 13.7345 20.3135 13.7345 21.2705C13.7345 24.7076 16.5307 27.5038 19.9675 27.5038C23.4049 27.5038 26.2008 24.7076 26.2008 21.2705C26.2008 17.8334 23.4049 15.0375 19.9675 15.0375C18.8443 15.0375 17.7609 15.334 16.8048 15.8988C16.5149 15.5325 16.1962 15.1909 15.8519 14.8759C17.0773 14.0829 18.4868 13.6646 19.9675 13.6646C24.1619 13.6646 27.5741 17.0764 27.5741 21.2705C27.5741 25.4646 24.1619 28.8768 19.9675 28.8768ZM7.16833 10.6115H12.8827L10.0255 12.4825L7.16833 10.6115ZM6.76288 7.90519H8.06735L6.40224 8.87383L6.76288 7.90519ZM13.2884 7.90519L13.6473 8.86913L11.9988 7.90519H13.2884ZM12.7035 9.54859H7.35627L10.0366 7.98887L12.7035 9.54859ZM17.4154 16.7746C18.1906 16.3329 19.0632 16.1004 19.9675 16.1004C22.8185 16.1004 25.1379 18.4195 25.1379 21.2705C25.1379 24.1215 22.8185 26.4409 19.9675 26.4409C19.041 26.4409 18.1713 26.1947 17.4184 25.7658C18.2412 24.4125 18.6751 22.868 18.6751 21.2705C18.6751 19.6253 18.2143 18.0861 17.4154 16.7746ZM14.9872 19.8844C15.1104 20.3255 15.1762 20.7904 15.1762 21.2705C15.1762 21.7403 15.1107 22.2064 14.9862 22.6551C14.8633 22.2143 14.7975 21.75 14.7975 21.2705C14.7975 20.8001 14.8625 20.3334 14.9872 19.8844ZM10.0059 26.4409C7.15491 26.4409 4.8355 24.1215 4.8355 21.2705C4.8355 18.4195 7.15491 16.1004 10.0059 16.1004C10.9324 16.1004 11.8024 16.3466 12.5553 16.7752C11.7322 18.1282 11.2983 19.6704 11.2983 21.2705C11.2983 22.9157 11.7594 24.4552 12.5583 25.7673C11.7831 26.2087 10.9102 26.4409 10.0059 26.4409ZM2.3996 21.2705C2.3996 17.0764 5.8118 13.6646 10.0059 13.6646C14.2 13.6646 17.6121 17.0764 17.6121 21.2705C17.6121 22.6455 17.2459 23.9754 16.551 25.1461C16.1824 24.8208 15.8619 24.4429 15.5975 24.0261C16.0179 23.1733 16.2392 22.2275 16.2392 21.2705C16.2392 17.8334 13.443 15.0375 10.0059 15.0375C6.56882 15.0375 3.77257 17.8334 3.77257 21.2705C3.77257 24.7076 6.56882 27.5038 10.0059 27.5038C11.1291 27.5038 12.2125 27.2073 13.1686 26.6425C13.4584 27.0088 13.7778 27.351 14.1221 27.666C12.8961 28.4587 11.4848 28.8768 10.0059 28.8768C5.8118 28.8768 2.3996 25.4646 2.3996 21.2705ZM19.9675 12.6016C18.1616 12.6016 16.4488 13.1475 14.986 14.1788C13.9821 13.4716 12.8218 12.9719 11.5682 12.7427L14.9558 10.5249C15.1636 10.3891 15.2494 10.1274 15.1628 9.89489L14.1557 7.18821C14.0784 6.98011 13.8797 6.84219 13.6578 6.84219H6.39346C6.17159 6.84219 5.97283 6.98011 5.89555 7.18821L4.88819 9.89489C4.80185 10.1274 4.88763 10.3891 5.09517 10.5249L8.474 12.7369C4.42189 13.4622 1.33667 17.0129 1.33667 21.2705C1.33667 26.0507 5.22571 29.9397 10.0059 29.9397C11.81 29.9397 13.5266 29.3949 14.99 28.3633C16.3996 29.3557 18.1165 29.9397 19.9675 29.9397C24.748 29.9397 28.637 26.0507 28.637 21.2705C28.637 16.4903 24.748 12.6016 19.9675 12.6016Z" fill="#1C3D5B"/>
<path d="M10.0238 3.493C10.3174 3.493 10.5551 3.25496 10.5551 2.96136V0.531358C10.5551 0.237962 10.3174 0 10.0238 0C9.73022 0 9.49219 0.237962 9.49219 0.531358V2.96136C9.49219 3.25496 9.73022 3.493 10.0238 3.493Z" fill="#1C3D5B"/>
<path d="M4.12252 5.71316C4.22615 5.81707 4.36231 5.86885 4.49839 5.86885C4.63427 5.86885 4.77036 5.81707 4.87399 5.71316C5.08153 5.50562 5.08153 5.16923 4.87399 4.96168L3.15591 3.24332C2.94837 3.03571 2.61198 3.03571 2.40444 3.24332C2.19661 3.45087 2.19661 3.78747 2.40416 3.99473L4.12252 5.71316Z" fill="#1C3D5B"/>
<path d="M15.5498 5.86885C15.6859 5.86885 15.8218 5.81707 15.9257 5.71316L17.6438 3.99473C17.8513 3.78747 17.8513 3.45087 17.6438 3.24332C17.4362 3.03571 17.0998 3.03571 16.8923 3.24332L15.1739 4.96168C14.9664 5.16923 14.9664 5.50562 15.1742 5.71316C15.2778 5.81707 15.4139 5.86885 15.5498 5.86885Z" fill="#1C3D5B"/>
</svg>
