<svg width="24" height="24" viewBox="0 0 24 24" fill="none" xmlns="http://www.w3.org/2000/svg">
<path fill-rule="evenodd" clip-rule="evenodd" d="M9.56135 5.3H14.4387C15.1558 5.29999 15.75 5.29997 16.2285 5.35182C16.7288 5.40602 17.185 5.52353 17.5871 5.81566C17.8163 5.98219 18.0179 6.18377 18.1844 6.41298C18.4765 6.81507 18.594 7.27126 18.6482 7.77151C18.7001 8.25007 18.7001 8.84429 18.7 9.56129V14.4387C18.7001 15.1557 18.7001 15.7499 18.6482 16.2285C18.594 16.7287 18.4765 17.1849 18.1844 17.587C18.0179 17.8162 17.8163 18.0178 17.5871 18.1844C17.185 18.4765 16.7288 18.594 16.2285 18.6482C15.75 18.7 15.1558 18.7 14.4388 18.7H9.56133C8.84433 18.7 8.25012 18.7 7.77155 18.6482C7.27131 18.594 6.81511 18.4765 6.41303 18.1844C6.18381 18.0178 5.98224 17.8162 5.8157 17.587C5.52357 17.1849 5.40607 16.7287 5.35187 16.2285C5.30002 15.7499 5.30003 15.1557 5.30005 14.4387V9.56131C5.30003 8.8443 5.30002 8.25007 5.35187 7.77151C5.40607 7.27126 5.52357 6.81507 5.8157 6.41298C5.98224 6.18377 6.18381 5.98219 6.41303 5.81566C6.81511 5.52353 7.27131 5.40602 7.77155 5.35182C8.25012 5.29997 8.84434 5.29999 9.56135 5.3ZM7.92235 6.74368C7.54122 6.78497 7.35958 6.85845 7.23593 6.94828C7.12557 7.02847 7.02851 7.12552 6.94833 7.23588C6.85849 7.35953 6.78502 7.54118 6.74372 7.92231C6.70101 8.31654 6.70005 8.83447 6.70005 9.6V14.4C6.70005 15.1655 6.70101 15.6835 6.74372 16.0777C6.78502 16.4588 6.85849 16.6405 6.94833 16.7641C7.02851 16.8745 7.12557 16.9715 7.23593 17.0517C7.35958 17.1416 7.54122 17.215 7.92235 17.2563C8.31658 17.299 8.83451 17.3 9.60005 17.3H14.4001C15.1656 17.3 15.6835 17.299 16.0777 17.2563C16.4589 17.215 16.6405 17.1416 16.7642 17.0517C16.8745 16.9715 16.9716 16.8745 17.0518 16.7641C17.1416 16.6405 17.2151 16.4588 17.2564 16.0777C17.2991 15.6835 17.3 15.1655 17.3 14.4V9.6C17.3 8.83447 17.2991 8.31654 17.2564 7.92231C17.2151 7.54118 17.1416 7.35953 17.0518 7.23588C16.9716 7.12552 16.8745 7.02847 16.7642 6.94828C16.6405 6.85845 16.4589 6.78497 16.0777 6.74368C15.6835 6.70097 15.1656 6.7 14.4 6.7H9.60005C8.83451 6.7 8.31658 6.70097 7.92235 6.74368Z" fill="#222628"/>
<path fill-rule="evenodd" clip-rule="evenodd" d="M12 8.3C12.3866 8.3 12.7 8.6134 12.7 9V12.1652L14.8473 13.3922C15.183 13.584 15.2996 14.0116 15.1078 14.3473C14.916 14.683 14.4884 14.7996 14.1528 14.6078L11.6528 13.1792C11.4346 13.0546 11.3 12.8226 11.3 12.5714V9C11.3 8.6134 11.6134 8.3 12 8.3Z" fill="#EE6B59"/>
<path fill-rule="evenodd" clip-rule="evenodd" d="M9.30005 4C9.30005 3.6134 9.61345 3.3 10 3.3H14C14.3866 3.3 14.7 3.6134 14.7 4C14.7 4.3866 14.3866 4.7 14 4.7H10C9.61345 4.7 9.30005 4.3866 9.30005 4Z" fill="#222628"/>
<path fill-rule="evenodd" clip-rule="evenodd" d="M9.30005 20C9.30005 19.6134 9.61345 19.3 10 19.3H14C14.3866 19.3 14.7 19.6134 14.7 20C14.7 20.3866 14.3866 20.7 14 20.7H10C9.61345 20.7 9.30005 20.3866 9.30005 20Z" fill="#222628"/>
</svg>
